<?xml version="1.0" standalone="no"?>
<!DOCTYPE svg PUBLIC "-//W3C//DTD SVG 20010904//EN"
 "http://www.w3.org/TR/2001/REC-SVG-20010904/DTD/svg10.dtd">
<svg version="1.0" xmlns="http://www.w3.org/2000/svg"
 width="500.000000pt" height="500.000000pt" viewBox="0 0 500.000000 500.000000"
 preserveAspectRatio="xMidYMid meet">

<g transform="translate(0.000000,500.000000) scale(0.100000,-0.100000)"
fill="#000000" stroke="none">
<path d="M0 2500 l0 -2500 2500 0 2500 0 0 2500 0 2500 -2500 0 -2500 0 0
-2500z m2731 1854 c225 -43 434 -152 606 -317 173 -167 278 -347 340 -586 34
-131 42 -355 19 -491 -55 -311 -221 -578 -480 -772 -104 -78 -269 -159 -335
-166 -47 -4 -53 -2 -86 31 -45 45 -46 87 -4 221 34 110 46 124 140 176 41 22
99 69 160 130 85 84 102 108 148 200 70 142 92 235 92 380 0 271 -120 505
-346 675 -45 34 -205 119 -211 112 -7 -7 -115 -561 -112 -576 2 -12 20 -18 71
-23 106 -10 168 -70 169 -162 1 -42 -306 -1161 -324 -1183 -16 -20 -66 -16
-78 6 -6 13 -10 187 -10 495 l0 476 -40 0 c-74 0 -144 47 -169 113 -7 19 -11
219 -11 595 0 520 1 570 18 601 22 45 61 73 114 82 58 11 232 2 329 -17z
m-661 -107 c13 -7 35 -28 47 -46 20 -30 23 -46 23 -136 0 -122 -12 -147 -105
-210 -78 -52 -180 -155 -230 -230 -42 -64 -99 -189 -110 -242 l-7 -33 149 0
c135 0 153 -2 193 -22 24 -13 58 -40 74 -61 27 -34 31 -47 31 -101 0 -51 -5
-70 -28 -104 -47 -71 -81 -82 -262 -82 -175 0 -166 5 -136 -81 87 -253 281
-445 533 -528 45 -15 76 -32 93 -52 23 -28 25 -39 25 -125 0 -111 -15 -155
-62 -184 -43 -26 -101 -26 -180 1 -307 104 -559 323 -703 609 -87 175 -125
339 -125 547 0 312 110 591 319 815 95 101 169 161 285 230 85 51 128 59 176
35z m778 -2398 c69 -24 95 -130 47 -188 -33 -38 -49 -43 -290 -86 -110 -20
-246 -45 -303 -56 -118 -24 -155 -18 -197 32 -42 51 -29 143 27 178 14 9 348
76 618 124 46 8 67 7 98 -4z m-140 -395 c76 -53 67 -180 -15 -212 -42 -17
-279 -62 -326 -62 -104 0 -161 99 -108 186 23 37 46 46 196 73 196 36 221 37
253 15z m-264 -508 c63 -48 86 -105 72 -181 -8 -40 -55 -99 -97 -121 -36 -18
-122 -18 -158 0 -71 37 -115 129 -96 203 28 115 186 170 279 99z m811 20 c37
-16 62 -54 52 -80 -8 -21 -66 -21 -73 -1 -9 22 -64 20 -64 -3 0 -12 19 -27 60
-45 96 -45 118 -124 49 -181 -39 -33 -117 -36 -166 -6 -38 23 -41 39 -13 65
18 16 22 16 59 1 83 -33 98 11 16 49 -30 15 -64 38 -75 52 -39 50 -19 122 44
149 40 17 69 17 111 0z m274 -14 c18 -13 26 -29 26 -48 0 -25 -4 -29 -33 -32
-22 -2 -34 2 -38 12 -4 10 -18 16 -36 16 -47 0 -31 -29 37 -65 93 -49 112
-110 51 -171 -29 -29 -41 -34 -81 -34 -52 0 -110 23 -120 48 -3 9 2 24 14 35
18 19 21 19 64 2 84 -32 94 12 12 51 -66 31 -95 65 -95 108 0 88 122 136 199
78z m306 9 c114 -52 141 -185 57 -274 -39 -42 -75 -57 -132 -57 -59 0 -97 17
-134 60 -74 88 -49 213 53 267 53 28 102 29 156 4z m300 4 c40 -16 63 -59 44
-81 -16 -20 -69 -18 -69 2 0 11 -8 14 -32 12 -50 -5 -44 -25 19 -56 90 -46
114 -86 89 -147 -20 -46 -52 -65 -111 -65 -51 0 -115 28 -115 51 0 36 48 66
64 40 10 -16 57 -22 72 -10 20 16 5 31 -60 63 -68 33 -94 78 -76 131 21 64
101 92 175 60z m-3117 -7 c7 -7 12 -24 12 -38 0 -14 -5 -31 -12 -38 -17 -17
-65 -15 -72 3 -3 8 -17 15 -31 15 -21 0 -25 -5 -25 -29 0 -28 2 -30 48 -33 45
-3 47 -4 47 -33 0 -28 -3 -30 -45 -35 -40 -4 -45 -8 -48 -32 -3 -26 -1 -28 32
-28 20 0 36 5 36 11 0 6 16 9 38 7 32 -3 37 -7 40 -30 2 -15 -2 -36 -8 -48
-10 -18 -20 -20 -110 -20 -88 0 -100 2 -110 19 -11 21 -14 278 -4 305 5 13 24
16 103 16 62 0 101 -4 109 -12z m140 0 c8 -8 12 -52 12 -130 l0 -118 30 0 c17
0 30 5 30 11 0 6 16 9 38 7 34 -3 37 -6 40 -36 5 -54 -9 -62 -112 -62 -58 0
-96 4 -104 12 -8 8 -12 53 -12 135 0 103 -2 123 -15 123 -10 0 -15 11 -15 35
l0 35 48 0 c26 0 53 -5 60 -12z m387 -38 c0 -43 -1 -45 -33 -48 -22 -2 -34 2
-38 12 -3 9 -17 16 -30 16 -20 0 -24 -5 -24 -30 0 -28 2 -30 39 -30 44 0 66
-19 56 -50 -5 -16 -15 -20 -51 -20 -42 0 -44 -1 -44 -30 0 -26 4 -30 28 -30
15 0 33 5 39 11 6 6 23 9 39 7 25 -3 29 -8 32 -36 5 -54 -9 -62 -112 -62 -58
0 -96 4 -104 12 -13 13 -18 309 -5 322 4 4 52 5 107 4 l101 -3 0 -45z m330 0
c0 -42 -2 -45 -29 -48 -19 -2 -32 2 -38 12 -5 9 -15 16 -23 16 -12 0 -15 -26
-17 -132 l-3 -133 -28 -3 c-51 -6 -57 8 -57 144 0 99 -3 124 -14 124 -8 0 -17
-7 -20 -16 -4 -10 -16 -14 -38 -12 -29 3 -33 7 -36 36 -6 63 -7 63 155 60
l148 -3 0 -45z m218 39 c53 -24 70 -120 30 -160 -20 -21 -21 -23 -5 -48 8 -14
24 -36 35 -48 23 -25 19 -66 -6 -71 -38 -7 -67 8 -87 47 -21 42 -46 71 -60 71
-5 0 -10 -26 -12 -57 -3 -55 -4 -58 -31 -61 -53 -6 -57 6 -57 173 0 83 3 155
7 158 11 11 160 8 186 -4z m657 -17 c77 -78 30 -202 -76 -202 l-44 0 0 -43 c0
-47 -13 -67 -45 -67 -41 0 -45 17 -45 175 0 84 3 155 7 158 3 4 44 7 90 7 80
0 86 -2 113 -28z m257 -122 c29 -80 52 -154 50 -165 -1 -16 -9 -20 -37 -20
-30 0 -37 5 -49 33 -14 30 -18 32 -67 32 -48 0 -52 -2 -59 -27 -8 -32 -21 -43
-51 -43 -48 0 -47 20 5 166 27 77 52 147 56 157 6 14 17 17 54 15 l46 -3 52
-145z"/>
<path d="M2299 885 c-38 -21 -54 -65 -39 -109 34 -104 165 -81 165 30 0 71
-66 113 -126 79z"/>
<path d="M3723 890 c-31 -13 -56 -65 -48 -100 18 -83 99 -109 149 -49 36 43
35 91 -3 130 -30 29 -58 35 -98 19z"/>
<path d="M1990 860 c0 -36 3 -40 25 -40 31 0 50 32 35 60 -6 12 -21 20 -35 20
-22 0 -25 -4 -25 -40z"/>
<path d="M2630 855 c0 -40 2 -45 23 -45 29 0 47 18 47 45 0 27 -18 45 -47 45
-21 0 -23 -5 -23 -45z"/>
<path d="M2891 827 c-14 -60 -15 -57 15 -57 25 0 26 2 19 38 -12 63 -21 68
-34 19z"/>
</g>
</svg>
